<svg width="180" height="180" viewBox="0 0 180 180" fill="none" xmlns="http://www.w3.org/2000/svg">
<path d="M34.0909 136.182C32.9091 136.182 31.9318 135.795 31.1591 135.023C30.3864 134.25 30 133.273 30 132.091C30 130.909 30.3864 129.932 31.1591 129.159C31.9318 128.386 32.9091 128 34.0909 128H145.909C147.091 128 148.068 128.386 148.841 129.159C149.614 129.932 150 130.909 150 132.091C150 133.273 149.614 134.25 148.841 135.023C148.068 135.795 147.091 136.182 145.909 136.182H34.0909ZM43.6364 119.818C41.4545 119.818 39.5455 119 37.9091 117.364C36.2727 115.727 35.4545 113.818 35.4545 111.636V46.1818C35.4545 44 36.2727 42.0909 37.9091 40.4545C39.5455 38.8182 41.4545 38 43.6364 38H136.364C138.545 38 140.455 38.8182 142.091 40.4545C143.727 42.0909 144.545 44 144.545 46.1818V111.636C144.545 113.818 143.727 115.727 142.091 117.364C140.455 119 138.545 119.818 136.364 119.818H43.6364ZM43.6364 111.636H136.364V46.1818H43.6364V111.636ZM43.6364 111.636V46.1818V111.636Z" fill="black"/>
<circle cx="90" cy="90" r="83" stroke="black" stroke-width="14"/>
</svg>
