<svg width="197" height="186" viewBox="0 0 197 186" fill="none" xmlns="http://www.w3.org/2000/svg">
<path d="M7 9L37 39" stroke="black" stroke-width="14" stroke-linecap="round"/>
<path d="M160 37L190 7" stroke="black" stroke-width="14" stroke-linecap="round"/>
<path d="M160 149L190 179" stroke="black" stroke-width="14" stroke-linecap="round"/>
<path d="M10 179L40 149" stroke="black" stroke-width="14" stroke-linecap="round"/>
<path d="M44.0909 139.182C42.9091 139.182 41.9318 138.795 41.1591 138.023C40.3864 137.25 40 136.273 40 135.091C40 133.909 40.3864 132.932 41.1591 132.159C41.9318 131.386 42.9091 131 44.0909 131H155.909C157.091 131 158.068 131.386 158.841 132.159C159.614 132.932 160 133.909 160 135.091C160 136.273 159.614 137.25 158.841 138.023C158.068 138.795 157.091 139.182 155.909 139.182H44.0909ZM53.6364 122.818C51.4545 122.818 49.5455 122 47.9091 120.364C46.2727 118.727 45.4545 116.818 45.4545 114.636V49.1818C45.4545 47 46.2727 45.0909 47.9091 43.4545C49.5455 41.8182 51.4545 41 53.6364 41H146.364C148.545 41 150.455 41.8182 152.091 43.4545C153.727 45.0909 154.545 47 154.545 49.1818V114.636C154.545 116.818 153.727 118.727 152.091 120.364C150.455 122 148.545 122.818 146.364 122.818H53.6364ZM53.6364 114.636H146.364V49.1818H53.6364V114.636ZM53.6364 114.636V49.1818V114.636Z" fill="black"/>
</svg>
