<svg width="120" height="99" viewBox="0 0 120 99" fill="none" xmlns="http://www.w3.org/2000/svg">
<path d="M4.09091 98.1818C2.90909 98.1818 1.93182 97.7954 1.15909 97.0227C0.386364 96.25 0 95.2727 0 94.0909C0 92.9091 0.386364 91.9318 1.15909 91.1591C1.93182 90.3864 2.90909 90 4.09091 90H115.909C117.091 90 118.068 90.3864 118.841 91.1591C119.614 91.9318 120 92.9091 120 94.0909C120 95.2727 119.614 96.25 118.841 97.0227C118.068 97.7954 117.091 98.1818 115.909 98.1818H4.09091ZM13.6364 81.8182C11.4545 81.8182 9.54545 81 7.90909 79.3636C6.27273 77.7273 5.45455 75.8182 5.45455 73.6364V8.18182C5.45455 6 6.27273 4.09091 7.90909 2.45455C9.54545 0.818182 11.4545 0 13.6364 0H106.364C108.545 0 110.455 0.818182 112.091 2.45455C113.727 4.09091 114.545 6 114.545 8.18182V73.6364C114.545 75.8182 113.727 77.7273 112.091 79.3636C110.455 81 108.545 81.8182 106.364 81.8182H13.6364ZM13.6364 73.6364H106.364V8.18182H13.6364V73.6364ZM13.6364 73.6364V8.18182V73.6364Z" fill="black"/>
<path d="M50 16L70 36" stroke="black" stroke-width="5" stroke-linecap="round"/>
<path d="M50 36L70 16" stroke="black" stroke-width="5" stroke-linecap="round"/>
<path d="M35 41L55 61" stroke="black" stroke-width="5" stroke-linecap="round"/>
<path d="M35 61L55 41" stroke="black" stroke-width="5" stroke-linecap="round"/>
<path d="M66 41L86 61" stroke="black" stroke-width="5" stroke-linecap="round"/>
<path d="M66 61L86 41" stroke="black" stroke-width="5" stroke-linecap="round"/>
</svg>
