<svg width="170" height="170" viewBox="0 0 170 170" fill="none" xmlns="http://www.w3.org/2000/svg">
<path d="M85 82.875C78.125 82.875 72.5 80.6875 68.125 76.3125C63.75 71.9375 61.5625 66.3125 61.5625 59.4375C61.5625 52.5625 63.75 46.9375 68.125 42.5625C72.5 38.1875 78.125 36 85 36C91.875 36 97.5 38.1875 101.875 42.5625C106.25 46.9375 108.438 52.5625 108.438 59.4375C108.438 66.3125 106.25 71.9375 101.875 76.3125C97.5 80.6875 91.875 82.875 85 82.875ZM35 133.031V118.344C35 114.385 35.9896 111 37.9687 108.187C39.9479 105.375 42.5 103.24 45.625 101.781C52.6042 98.6562 59.2969 96.3125 65.7031 94.75C72.1094 93.1875 78.5417 92.4062 85 92.4062C91.4583 92.4062 97.8646 93.2135 104.219 94.8281C110.573 96.4427 117.24 98.7604 124.219 101.781C127.448 103.24 130.052 105.375 132.031 108.187C134.01 111 135 114.385 135 118.344V133.031H35ZM44.375 123.656H125.625V118.344C125.625 116.677 125.13 115.089 124.141 113.578C123.151 112.068 121.927 110.948 120.469 110.219C113.802 106.99 107.708 104.776 102.188 103.578C96.6667 102.38 90.9375 101.781 85 101.781C79.0625 101.781 73.2813 102.38 67.6563 103.578C62.0313 104.776 55.9375 106.99 49.375 110.219C47.9167 110.948 46.7187 112.068 45.7812 113.578C44.8437 115.089 44.375 116.677 44.375 118.344V123.656ZM85 73.5C89.0625 73.5 92.4219 72.1719 95.0781 69.5156C97.7344 66.8594 99.0625 63.5 99.0625 59.4375C99.0625 55.375 97.7344 52.0156 95.0781 49.3594C92.4219 46.7031 89.0625 45.375 85 45.375C80.9375 45.375 77.5781 46.7031 74.9219 49.3594C72.2656 52.0156 70.9375 55.375 70.9375 59.4375C70.9375 63.5 72.2656 66.8594 74.9219 69.5156C77.5781 72.1719 80.9375 73.5 85 73.5Z" fill="black"/>
<circle cx="85" cy="85" r="78" stroke="black" stroke-width="14"/>
</svg>
