<svg width="126" height="94" viewBox="0 0 126 94" fill="none" xmlns="http://www.w3.org/2000/svg">
<path d="M13 94V79.3125C13 75.3542 13.9896 71.9687 15.9687 69.1562C17.9479 66.3437 20.5 64.2083 23.625 62.75C30.6042 59.625 37.2969 57.2812 43.7031 55.7188C50.1094 54.1562 56.5417 53.375 63 53.375C69.4583 53.375 75.8646 54.1823 82.2188 55.7969C88.5729 57.4115 95.2396 59.7292 102.219 62.75C105.448 64.2083 108.052 66.3437 110.031 69.1562C112.01 71.9687 113 75.3542 113 79.3125V94H13ZM22.375 84.625H103.625V79.3125C103.625 77.6458 103.13 76.0573 102.141 74.5469C101.151 73.0365 99.9271 71.9167 98.4687 71.1875C91.8021 67.9583 85.7083 65.7448 80.1875 64.5469C74.6667 63.349 68.9375 62.75 63 62.75C57.0625 62.75 51.2813 63.349 45.6563 64.5469C40.0313 65.7448 33.9375 67.9583 27.375 71.1875C25.9167 71.9167 24.7187 73.0365 23.7812 74.5469C22.8437 76.0573 22.375 77.6458 22.375 79.3125V84.625Z" fill="black"/>
<path d="M43 5L83 45" stroke="black" stroke-width="9" stroke-linecap="round"/>
<path d="M43 45L83 5" stroke="black" stroke-width="9" stroke-linecap="round"/>
<path d="M103 35L123 55" stroke="black" stroke-width="5" stroke-linecap="round"/>
<path d="M103 55L123 35" stroke="black" stroke-width="5" stroke-linecap="round"/>
<path d="M3 35L23 55" stroke="black" stroke-width="5" stroke-linecap="round"/>
<path d="M3 55L23 35" stroke="black" stroke-width="5" stroke-linecap="round"/>
</svg>
