<svg width="136" height="153" viewBox="0 0 136 153" fill="none" xmlns="http://www.w3.org/2000/svg">
<path d="M7 17.0312L37 47.0312" stroke="black" stroke-width="14" stroke-linecap="round"/>
<path d="M99 45.0312L129 15.0313" stroke="black" stroke-width="14" stroke-linecap="round"/>
<path d="M99 115.031L129 145.031" stroke="black" stroke-width="14" stroke-linecap="round"/>
<path d="M7 145.031L37 115.031" stroke="black" stroke-width="14" stroke-linecap="round"/>
<path d="M68 46.875C61.125 46.875 55.5 44.6875 51.125 40.3125C46.75 35.9375 44.5625 30.3125 44.5625 23.4375C44.5625 16.5625 46.75 10.9375 51.125 6.5625C55.5 2.1875 61.125 0 68 0C74.875 0 80.5 2.1875 84.875 6.5625C89.25 10.9375 91.4375 16.5625 91.4375 23.4375C91.4375 30.3125 89.25 35.9375 84.875 40.3125C80.5 44.6875 74.875 46.875 68 46.875ZM18 97.0312V82.3437C18 78.3854 18.9896 75 20.9687 72.1875C22.9479 69.375 25.5 67.2396 28.625 65.7812C35.6042 62.6562 42.2969 60.3125 48.7031 58.75C55.1094 57.1875 61.5417 56.4062 68 56.4062C74.4583 56.4062 80.8646 57.2135 87.2188 58.8281C93.5729 60.4427 100.24 62.7604 107.219 65.7812C110.448 67.2396 113.052 69.375 115.031 72.1875C117.01 75 118 78.3854 118 82.3437V97.0312H18ZM27.375 87.6562H108.625V82.3437C108.625 80.6771 108.13 79.0885 107.141 77.5781C106.151 76.0677 104.927 74.9479 103.469 74.2188C96.8021 70.9896 90.7083 68.776 85.1875 67.5781C79.6667 66.3802 73.9375 65.7812 68 65.7812C62.0625 65.7812 56.2813 66.3802 50.6563 67.5781C45.0313 68.776 38.9375 70.9896 32.375 74.2188C30.9167 74.9479 29.7187 76.0677 28.7812 77.5781C27.8437 79.0885 27.375 80.6771 27.375 82.3437V87.6562ZM68 37.5C72.0625 37.5 75.4219 36.1719 78.0781 33.5156C80.7344 30.8594 82.0625 27.5 82.0625 23.4375C82.0625 19.375 80.7344 16.0156 78.0781 13.3594C75.4219 10.7031 72.0625 9.375 68 9.375C63.9375 9.375 60.5781 10.7031 57.9219 13.3594C55.2656 16.0156 53.9375 19.375 53.9375 23.4375C53.9375 27.5 55.2656 30.8594 57.9219 33.5156C60.5781 36.1719 63.9375 37.5 68 37.5Z" fill="black"/>
</svg>
