<svg width="125" height="98" viewBox="0 0 125 98" fill="none" xmlns="http://www.w3.org/2000/svg">
<path d="M62 46.875C55.125 46.875 49.5 44.6875 45.125 40.3125C40.75 35.9375 38.5625 30.3125 38.5625 23.4375C38.5625 16.5625 40.75 10.9375 45.125 6.5625C49.5 2.1875 55.125 0 62 0C68.875 0 74.5 2.1875 78.875 6.5625C83.25 10.9375 85.4375 16.5625 85.4375 23.4375C85.4375 30.3125 83.25 35.9375 78.875 40.3125C74.5 44.6875 68.875 46.875 62 46.875ZM12 97.0312V82.3437C12 78.3854 12.9896 75 14.9687 72.1875C16.9479 69.375 19.5 67.2396 22.625 65.7812C29.6042 62.6562 36.2969 60.3125 42.7031 58.75C49.1094 57.1875 55.5417 56.4062 62 56.4062C68.4583 56.4062 74.8646 57.2135 81.2188 58.8281C87.5729 60.4427 94.2396 62.7604 101.219 65.7812C104.448 67.2396 107.052 69.375 109.031 72.1875C111.01 75 112 78.3854 112 82.3437V97.0312H12ZM21.375 87.6562H102.625V82.3437C102.625 80.6771 102.13 79.0885 101.141 77.5781C100.151 76.0677 98.9271 74.9479 97.4687 74.2188C90.8021 70.9896 84.7083 68.776 79.1875 67.5781C73.6667 66.3802 67.9375 65.7812 62 65.7812C56.0625 65.7812 50.2813 66.3802 44.6563 67.5781C39.0313 68.776 32.9375 70.9896 26.375 74.2188C24.9167 74.9479 23.7187 76.0677 22.7812 77.5781C21.8437 79.0885 21.375 80.6771 21.375 82.3437V87.6562ZM62 37.5C66.0625 37.5 69.4219 36.1719 72.0781 33.5156C74.7344 30.8594 76.0625 27.5 76.0625 23.4375C76.0625 19.375 74.7344 16.0156 72.0781 13.3594C69.4219 10.7031 66.0625 9.375 62 9.375C57.9375 9.375 54.5781 10.7031 51.9219 13.3594C49.2656 16.0156 47.9375 19.375 47.9375 23.4375C47.9375 27.5 49.2656 30.8594 51.9219 33.5156C54.5781 36.1719 57.9375 37.5 62 37.5Z" fill="black"/>
<circle cx="12.5" cy="51.5312" r="10" stroke="black" stroke-width="5"/>
<circle cx="112.5" cy="51.5312" r="10" stroke="black" stroke-width="5"/>
</svg>
